:FULLY-SPECIFIED
:FORCE-ALL-JOINTS-BE-3DOF
:DEGREES
1835
root 6.67231 13.9119 27.7785 1064.2 55.0988 342.745
lfemur -53.2018 25.211 1.63718
ltibia 61.1518 0 0
lfoot -1.16834 -8.38457 0
ltoes -16.3778 0 0
rfemur 4.64305 -4.7031 17.7294
rtibia 49.454 0 0
rfoot -27.4651 -29.5291 0
rtoes -28.5705 0 0
lowerback 14.1298 3.95169 6.72634
upperback -0.403384 6.87837 4.6174
thorax -8.19616 3.18872 -0.265268
lowerneck -3.93441 10.8074 3.75407
upperneck 7.24651 14.4853 -2.71108
head 3.50252 7.21567 -0.84362
lclavicle -1.47833e-14 -3.5342e-14 0
lhumerus 68.8719 16.9771 107.866
lradius 5.29039 0 0
lwrist -88.2433 0 0
lhand -34.4128 43.1349 0
lfingers 7.12502 0 0
lthumb -7.57723 73.0005 0
rclavicle -1.47833e-14 -3.5342e-14 0
rhumerus -74.8668 10.1314 -82.5946
rradius 129.987 0 0
rwrist -159.798 0 0
rhand -71.7515 -363.16 0
rfingers 7.12502 0 0
rthumb -43.3639 267.993 0
1836
root 6.68947 13.9075 27.7853 1063.43 54.9305 341.793
lfemur -53.3571 25.6559 1.62594
ltibia 62.1687 0 0
lfoot -1.92178 -8.4122 0
ltoes -17.3279 0 0
rfemur 4.59207 -4.72695 17.7401
rtibia 49.197 0 0
rfoot -27.2036 -29.6374 0
rtoes -28.7103 0 0
lowerback 14.128 4.06126 6.66877
upperback -0.429908 7.01751 4.63741
thorax -8.22644 3.25785 -0.240465
lowerneck -3.8118 10.9045 3.84919
upperneck 7.16478 14.619 -2.79634
head 3.49056 7.28153 -0.885872
lclavicle -1.60192e-14 -3.69771e-14 0
lhumerus 67.9729 16.8331 108.062
lradius 5.99381 0 0
lwrist -88.0068 0 0
lhand -34.0433 42.8902 0
lfingers 7.12502 0 0
lthumb -7.22065 72.7619 0
rclavicle -1.60192e-14 -3.69771e-14 0
rhumerus -74.5156 10.2367 -82.5373
rradius 129.482 0 0
rwrist -156.961 0 0
rhand -70.6384 -367.824 0
rfingers 7.12502 0 0
rthumb -42.3051 267.714 0
1837
root 6.70945 13.9026 27.7925 1062.7 54.7589 340.881
lfemur -53.5187 26.0973 1.61697
ltibia 63.1797 0 0
lfoot -2.67008 -8.43765 0
ltoes -18.2726 0 0
rfemur 4.55169 -4.74414 17.748
rtibia 48.9382 0 0
rfoot -26.9504 -29.7446 0
rtoes -28.8545 0 0
lowerback 14.125 4.16993 6.61607
upperback -0.455944 7.15626 4.65876
thorax -8.25505 3.3267 -0.21663
lowerneck -3.68834 11.0096 3.94906
upperneck 7.08533 14.764 -2.88788
head 3.47974 7.35293 -0.930198
lclavicle -1.73559e-14 -3.85621e-14 0
lhumerus 67.1126 16.6921 108.248
lradius 6.66783 0 0
lwrist -87.7913 0 0
lhand -33.6811 42.6478 0
lfingers 7.12502 0 0
lthumb -6.871 72.5256 0
rclavicle -1.73559e-14 -3.85621e-14 0
rhumerus -74.1961 10.3465 -82.5068
rradius 128.989 0 0
rwrist -154.101 0 0
rhand -69.4805 -372.511 0
rfingers 7.12502 0 0
rthumb -41.203 267.54 0
1838
root 6.7329 13.8972 27.8 1062.02 54.5829 340.02
lfemur -53.6878 26.5353 1.6106
ltibia 64.1823 0 0
lfoot -3.4114 -8.46198 0
ltoes -19.2097 0 0
rfemur 4.52453 -4.75254 17.7524
rtibia 48.6777 0 0
rfoot -26.7071 -29.8507 0
rtoes -29.0043 0 0
lowerback 14.1206 4.27738 6.56905
upperback -0.481381 7.29434 4.68172
thorax -8.28177 3.39511 -0.193844
lowerneck -3.5642 11.1242 4.05453
upperneck 7.00861 14.9221 -2.98684
head 3.47018 7.43075 -0.976992
lclavicle -1.87954e-14 -4.00927e-14 0
lhumerus 66.3022 16.5564 108.422
lradius 7.30432 0 0
lwrist -87.604 0 0
lhand -33.3281 42.4089 0
lfingers 7.12502 0 0
lthumb -6.53031 72.2928 0
rclavicle -1.87954e-14 -4.00927e-14 0
rhumerus -73.9158 10.4612 -82.5069
rradius 128.514 0 0
rwrist -151.229 0 0
rhand -68.2793 -377.231 0
rfingers 7.12502 0 0
rthumb -40.0592 267.496 0
